<?xml version="1.0" encoding="iso-8859-1"?>
<!-- Generator: Adobe Illustrator 21.0.0, SVG Export Plug-In . SVG Version: 6.00 Build 0)  -->
<svg version="1.1" id="Capa_1" xmlns="http://www.w3.org/2000/svg" xmlns:xlink="http://www.w3.org/1999/xlink" x="0px" y="0px"
	 viewBox="0 0 240.09 122.41" style="enable-background:new 0 0 240.09 122.41;" xml:space="preserve">
<g>
	<path style="fill-rule:evenodd;clip-rule:evenodd;fill:#FFED00;" d="M11.24,0h217.6c6.18,0,11.24,5.06,11.24,11.24v99.92
		c0,6.18-5.06,11.24-11.24,11.24H11.24C5.06,122.41,0,117.35,0,111.17V11.24C0,5.06,5.06,0,11.24,0L11.24,0z"/>
	<path style="fill:#05558C;" d="M57.2,53.72c4.53-3.69,5.22-10.35,1.54-14.88c-2.09-2.57-5.14-3.9-8.21-3.91l-9.77,0
		c-2.32,0.01-4.66,0.79-6.61,2.37c-2.57,2.09-3.91,5.14-3.91,8.21l0,0v14.67c0,0,2.26-3.73,8.06-4.11v0h2.11
		c0.3,0.01,0.59,0.01,0.89,0h0.12h8.7C52.6,56.17,55.12,55.4,57.2,53.72L57.2,53.72z"/>
	<path style="fill:#05558C;" d="M60.24,80.36c5-4.06,5.76-11.41,1.7-16.41c-2.3-2.83-5.66-4.3-9.05-4.31l-11.06,0
		c-2.56,0.01-5.14,0.87-7.28,2.61c-2.84,2.31-4.31,5.67-4.31,9.06l0,0v16.17c0,0,2.49-4.11,8.88-4.53v0h2.32
		c0.33,0.01,0.65,0.01,0.98,0h0.13h9.88C55.17,83.07,57.95,82.22,60.24,80.36L60.24,80.36z"/>
	<path style="fill-rule:evenodd;clip-rule:evenodd;fill:#05558C;" d="M79.63,35.07h6.39c0.59,0,1.07,0.48,1.07,1.07v12.64
		C90.48,45.8,94.85,44,99.63,44c10.72,0,19.4,9.05,19.4,20.21c0,11.16-8.69,20.21-19.4,20.21c-4.78,0-9.16-1.8-12.54-4.79v2.75
		c0,0.59-0.48,1.07-1.07,1.07h-6.39c-0.59,0-1.07-0.48-1.07-1.07V36.14C78.56,35.55,79.04,35.07,79.63,35.07L79.63,35.07z
		 M98.76,52.26c6.4,0,11.58,5.35,11.58,11.96c0,6.6-5.19,11.96-11.58,11.96c-6.4,0-11.58-5.35-11.58-11.96
		C87.18,57.61,92.36,52.26,98.76,52.26L98.76,52.26z"/>
	<path style="fill-rule:evenodd;clip-rule:evenodd;fill:#05558C;" d="M124.95,35.07h6.39c0.59,0,1.07,0.48,1.07,1.07v6.54
		c0,0.59-0.48,1.07-1.07,1.07h-6.39c-0.59,0-1.07-0.48-1.07-1.07v-6.54C123.88,35.55,124.36,35.07,124.95,35.07L124.95,35.07z"/>
	<path style="fill-rule:evenodd;clip-rule:evenodd;fill:#05558C;" d="M124.95,46.9h6.39c0.59,0,1.07,0.48,1.07,1.07v34.4
		c0,0.59-0.48,1.07-1.07,1.07h-6.39c-0.59,0-1.07-0.48-1.07-1.07v-34.4C123.88,47.38,124.36,46.9,124.95,46.9L124.95,46.9z"/>
	<path style="fill-rule:evenodd;clip-rule:evenodd;fill:#05558C;" d="M154.68,48.13v6.14c0,0.57-0.46,1.03-1.03,1.03h-6.77v8.66
		v6.49c0,2.28,1.39,3.88,2.98,4.57c2.78,1.22,4.94-0.37,4.91,1.49l0.02,6.5c0,0.43,0.07,1.37-0.85,1.37c-4.8,0-8.02,0.09-11.8-3.08
		c-1.62-1.36-3.8-5.31-3.8-7.96v-2.74v-6.63V36.14c0-0.59,0.48-1.07,1.07-1.07h6.39c0.59,0,1.07,0.48,1.07,1.07V47.1h6.77
		C154.22,47.1,154.68,47.56,154.68,48.13L154.68,48.13z"/>
	<path style="fill-rule:evenodd;clip-rule:evenodd;fill:#05558C;" d="M202.38,35.07h6.39c0.59,0,1.07,0.48,1.07,1.07v46.23
		c0,0.59-0.48,1.07-1.07,1.07h-6.39c-0.59,0-1.07-0.48-1.07-1.07V36.14C201.31,35.55,201.79,35.07,202.38,35.07L202.38,35.07z"/>
	<path style="fill-rule:evenodd;clip-rule:evenodd;fill:#05558C;" d="M176.27,52.52c3.62,0,5.05,0.28,7.96,2.6
		c1.22,0.98,3.16,3.86,3.32,5.8h-21.6C166.27,57.15,171.24,52.52,176.27,52.52L176.27,52.52z M156.59,64.76
		c0,2.58,0.77,5.65,1.78,8.06c0.86,2.07,2.54,4.36,4.05,6.03c0.5,0.55,0.73,0.55,1.31,1.09c0.61,0.56,0.58,0.61,1.3,1.1
		c1.14,0.76,1.85,1.24,3.15,1.89c9.16,4.55,21.95,1.41,26.56-8.8c1.55-3.43,1.21-2.64-8.16-2.64c-0.69,0-1.19,1.21-1.58,1.78
		c-2.71,4.02-10.73,4.79-15.16,1.03c-1.59-1.35-3.69-3.6-3.91-6.17h30.24c1.36-2.84,0-9.82-1.43-12.73
		C185.21,36.03,156.59,43.48,156.59,64.76L156.59,64.76z"/>
</g>
</svg>
